<svg xmlns="http://www.w3.org/2000/svg" width="760" height="520" viewBox="0 0 760 520" role="img" aria-label="VibeGraph Chrome Extension session list screen">
  <rect width="760" height="520" rx="18" fill="#f6f7fb"/>
  <rect x="28" y="24" width="704" height="472" rx="16" fill="#ffffff" stroke="#d6dce8"/>
  <text x="56" y="68" fill="#0f172a" font-family="Segoe UI, Arial, sans-serif" font-size="30" font-weight="800">VibeGraph</text>
  <text x="56" y="96" fill="#64748b" font-family="Segoe UI, Arial, sans-serif" font-size="15">AI 작업 대화를 로컬에 기록합니다.</text>
  <rect x="56" y="124" width="158" height="46" rx="8" fill="#0f766e"/>
  <text x="83" y="153" fill="#ffffff" font-family="Segoe UI, Arial, sans-serif" font-size="16" font-weight="700">현재 대화 캡처</text>
  <rect x="226" y="124" width="116" height="46" rx="8" fill="#e2e8f0"/>
  <text x="254" y="153" fill="#334155" font-family="Segoe UI, Arial, sans-serif" font-size="16" font-weight="700">직접 입력</text>
  <rect x="56" y="190" width="648" height="56" rx="10" fill="#e2e8f0"/>
  <rect x="62" y="196" width="154" height="44" rx="8" fill="#ffffff"/>
  <text x="105" y="224" fill="#0f172a" font-family="Segoe UI, Arial, sans-serif" font-size="15" font-weight="800">세션목록</text>
  <text x="258" y="224" fill="#475569" font-family="Segoe UI, Arial, sans-serif" font-size="15" font-weight="700">대화 관리</text>
  <text x="420" y="224" fill="#475569" font-family="Segoe UI, Arial, sans-serif" font-size="15" font-weight="700">개별 리포트</text>
  <text x="586" y="224" fill="#475569" font-family="Segoe UI, Arial, sans-serif" font-size="15" font-weight="700">전체 리포트</text>
  <text x="56" y="288" fill="#0f172a" font-family="Segoe UI, Arial, sans-serif" font-size="22" font-weight="800">세션 목록</text>
  <rect x="56" y="312" width="536" height="70" rx="10" fill="#ccfbf1" stroke="#14b8a6"/>
  <text x="78" y="342" fill="#0f172a" font-family="Segoe UI, Arial, sans-serif" font-size="17" font-weight="800">종합소득세 신고 플랫폼 선택</text>
  <text x="78" y="368" fill="#475569" font-family="Segoe UI, Arial, sans-serif" font-size="15">claude · 메시지 4개 · 2026. 07. 06. 오전 12:35</text>
  <rect x="606" y="312" width="88" height="70" rx="10" fill="#ffe4e6" stroke="#fecdd3"/>
  <text x="634" y="354" fill="#be123c" font-family="Segoe UI, Arial, sans-serif" font-size="16" font-weight="800">삭제</text>
  <rect x="56" y="396" width="536" height="70" rx="10" fill="#f8fafc" stroke="#d6dce8"/>
  <text x="78" y="426" fill="#0f172a" font-family="Segoe UI, Arial, sans-serif" font-size="17" font-weight="800">직접 입력</text>
  <text x="78" y="452" fill="#475569" font-family="Segoe UI, Arial, sans-serif" font-size="15">manual · 메시지 1개 · 2026. 07. 06. 오전 03:07</text>
  <rect x="606" y="396" width="88" height="70" rx="10" fill="#ffe4e6" stroke="#fecdd3"/>
  <text x="634" y="438" fill="#be123c" font-family="Segoe UI, Arial, sans-serif" font-size="16" font-weight="800">삭제</text>
</svg>
